<?xml version="1.0" encoding="UTF-8"?>
<svg xmlns="http://www.w3.org/2000/svg" xmlns:xlink="http://www.w3.org/1999/xlink" width="182pt" height="182.1pt" viewBox="0 0 182 182.1" version="1.1">
<defs>
<clipPath id="clip1">
  <path d="M 0 150 L 153 150 L 153 182.101563 L 0 182.101563 Z M 0 150 "/>
</clipPath>
</defs>
<g id="surface1">
<path style=" stroke:none;fill-rule:evenodd;fill:rgb(0%,56.443787%,20.776367%);fill-opacity:1;" d="M 91.550781 129.253906 C 102.359375 126.988281 106.644531 103.894531 124.550781 89.878906 C 119.132813 92.445313 113.574219 95.863281 108.125 100.027344 C 101.890625 104.792969 95.808594 110.527344 90.25 117.0625 C 91.480469 121.476563 91.980469 125.617188 91.550781 129.253906 Z M 126.578125 87.742188 C 115.628906 86.734375 96.652344 96.605469 86.644531 107.464844 C 87.953125 110.296875 89.046875 113.085938 89.875 115.785156 C 95.359375 109.410156 101.335938 103.8125 107.445313 99.140625 C 113.796875 94.285156 120.304688 90.429688 126.578125 87.742188 Z M 126.578125 87.742188 "/>
<path style=" stroke:none;fill-rule:evenodd;fill:rgb(69.334412%,78.90625%,0%);fill-opacity:1;" d="M 84.953125 68.519531 L 82.25 48.601563 L 81.347656 31.59375 C 86.257813 31.320313 91.089844 29.921875 95.855469 27.5625 L 98.753906 41.914063 L 98.929688 43.074219 C 95.125 45.109375 90.464844 47.679688 84.820313 48.613281 L 85.507813 49.597656 C 90.179688 49.296875 96.230469 47.121094 98.929688 43.074219 L 102.167969 64.25 L 107.289063 64.535156 L 109.566406 54.859375 L 110.464844 42.835938 C 115.050781 44.375 121.179688 44.578125 125.757813 43.691406 L 125.882813 42.773438 C 120.988281 43.300781 114.792969 42.929688 110.582031 41.273438 L 110.703125 39.636719 L 112.835938 25.101563 C 118.089844 26.453125 123.34375 26.660156 128.597656 26.269531 L 127.917969 38.640625 L 127.0625 44.476563 L 124.644531 64.25 L 127.0625 66.667969 L 132.753906 50.734375 L 133.21875 49.847656 C 137.652344 53.035156 142.085938 54.117188 146.519531 54.609375 C 141.769531 53.308594 137.109375 51 133.925781 48.503906 L 135.742188 45.042969 L 140.152344 32.808594 L 144.5625 19.863281 C 146.640625 12.480469 159.410156 13.164063 157.082031 24.984375 L 153.324219 39.253906 C 150.894531 38.820313 146.507813 37.113281 143.179688 36.019531 C 144.988281 37.699219 148.070313 39.207031 153.003906 40.46875 L 150.109375 51.445313 L 142.285156 75.917969 L 145.417969 78.902344 L 147.125 78.476563 L 154.238281 69.515625 C 157.746094 73.503906 160.699219 75.972656 164.730469 78.191406 L 163.484375 80.609375 L 156.226563 92.847656 C 150.476563 115.910156 142.875 134.65625 133.039063 148.1875 C 125.933594 150.152344 119.410156 150.789063 110.84375 146.480469 C 99.464844 148.691406 89.496094 147.910156 81.199219 143.574219 C 81.292969 143.542969 81.378906 143.503906 81.472656 143.472656 C 87.0625 142.355469 90.296875 137.851563 91.757813 130.789063 C 105.636719 128.421875 104.933594 104.320313 129.65625 87.363281 C 116.984375 84.148438 99.894531 93.046875 85.433594 104.867188 C 83.183594 100.457031 80.460938 95.988281 77.410156 91.640625 C 80.921875 88.46875 83.292969 82.089844 84.527344 72.5 Z M 154.238281 69.515625 L 160.417969 60.863281 C 163.085938 62.652344 165.820313 63.957031 168.609375 64.910156 L 169.226563 64.292969 C 166.664063 63.515625 163.980469 62.003906 161.050781 59.886719 L 170.882813 44.046875 C 173.59375 40.453125 182.003906 42.226563 179.558594 49.453125 L 164.730469 78.191406 C 162.566406 75.464844 158.839844 72.542969 154.238281 69.515625 Z M 113.007813 23.941406 L 115.398438 8.195313 C 117.167969 -0.0625 129.074219 0.222656 129.339844 10.757813 L 128.636719 25.539063 C 126.402344 25.769531 121.773438 25.742188 113.007813 23.941406 Z M 81.230469 29.441406 L 80.257813 14.03125 C 80.558594 3.921875 91.078125 4.085938 93.628906 11.328125 L 95.734375 26.902344 C 91.429688 29.0625 86.683594 29.894531 81.230469 29.441406 Z M 81.230469 29.441406 "/>
<path style=" stroke:none;fill-rule:evenodd;fill:rgb(100%,92.576599%,0%);fill-opacity:1;" d="M 147.28125 121.339844 C 143.164063 131.761719 138.4375 140.761719 133.039063 148.1875 C 125.933594 150.152344 119.410156 150.789063 110.84375 146.480469 C 99.464844 148.691406 89.496094 147.910156 81.199219 143.574219 C 81.292969 143.542969 81.378906 143.503906 81.472656 143.472656 C 87.0625 142.355469 90.296875 137.851563 91.757813 130.789063 C 99.859375 129.40625 102.996094 120.617188 109.117188 110.167969 C 109.621094 110.449219 110.125 110.734375 110.640625 111.007813 C 122.40625 117.316406 134.925781 120.675781 147.28125 121.339844 Z M 93.347656 98.898438 C 90.652344 100.761719 88 102.765625 85.433594 104.867188 C 83.183594 100.457031 80.460938 95.988281 77.410156 91.640625 C 78.941406 90.257813 80.253906 88.261719 81.355469 85.660156 C 84.832031 90.40625 88.839844 94.855469 93.347656 98.898438 Z M 93.347656 98.898438 "/>
<path style=" stroke:none;fill-rule:evenodd;fill:rgb(100%,92.576599%,0%);fill-opacity:1;" d="M 155.832031 94.417969 C 150.128906 116.761719 142.652344 134.964844 133.039063 148.1875 C 125.933594 150.152344 119.410156 150.789063 110.84375 146.480469 C 99.464844 148.691406 89.496094 147.910156 81.199219 143.574219 C 81.292969 143.542969 81.378906 143.503906 81.472656 143.472656 C 87.0625 142.355469 90.296875 137.851563 91.757813 130.789063 C 100.570313 129.285156 103.503906 119.023438 110.796875 107.390625 C 127.449219 106.035156 142.832031 101.429688 155.832031 94.417969 Z M 155.832031 94.417969 "/>
<path style=" stroke:none;fill-rule:evenodd;fill:rgb(0%,56.443787%,20.776367%);fill-opacity:1;" d="M 79.375 143.1875 C 47.128906 147.875 62.304688 98.558594 36.15625 60.535156 C 50.886719 73.832031 60.796875 87.265625 67.378906 100.789063 C 74.226563 114.851563 77.480469 129.019531 78.820313 143.238281 Z M 35.859375 58.765625 C 64.558594 66.019531 110.925781 131.648438 79.917969 142.984375 C 78.554688 128.6875 75.273438 114.441406 68.386719 100.296875 C 61.589844 86.339844 51.285156 72.480469 35.859375 58.765625 Z M 35.859375 58.765625 "/>
<path style=" stroke:none;fill-rule:evenodd;fill:rgb(100%,92.576599%,0%);fill-opacity:1;" d="M 79.375 143.1875 C 47.128906 147.875 62.304688 98.558594 36.15625 60.535156 C 50.886719 73.832031 60.796875 87.265625 67.378906 100.789063 C 74.226563 114.851563 77.480469 129.019531 78.820313 143.238281 Z M 35.859375 58.765625 C 64.558594 66.019531 110.925781 131.648438 79.917969 142.984375 C 78.554688 128.6875 75.273438 114.441406 68.386719 100.296875 C 61.589844 86.339844 51.285156 72.480469 35.859375 58.765625 Z M 35.859375 58.765625 "/>
<g clip-path="url(#clip1)" clip-rule="nonzero">
<path style=" stroke:none;fill-rule:evenodd;fill:rgb(10.594177%,9.812927%,9.423828%);fill-opacity:1;" d="M 13.417969 161.464844 C 12.660156 160.660156 11.796875 160.058594 10.816406 159.679688 C 9.84375 159.296875 8.796875 159.105469 7.695313 159.109375 C 6.546875 159.117188 5.5 159.3125 4.5625 159.699219 C 3.621094 160.085938 2.808594 160.628906 2.128906 161.328125 C 1.453125 162.03125 0.925781 162.859375 0.554688 163.808594 C 0.191406 164.757813 0.00390625 165.800781 0 166.933594 C 0.00390625 168.085938 0.191406 169.132813 0.554688 170.085938 C 0.917969 171.042969 1.441406 171.867188 2.121094 172.5625 C 2.796875 173.257813 3.605469 173.796875 4.546875 174.179688 C 5.492188 174.5625 6.539063 174.75 7.695313 174.757813 C 8.421875 174.757813 9.121094 174.671875 9.800781 174.507813 C 10.476563 174.339844 11.113281 174.078125 11.707031 173.722656 C 12.308594 173.375 12.84375 172.921875 13.324219 172.371094 L 11.480469 170.621094 C 11.019531 171.257813 10.476563 171.726563 9.847656 172.023438 C 9.222656 172.324219 8.507813 172.472656 7.695313 172.46875 C 6.9375 172.460938 6.25 172.320313 5.632813 172.03125 C 5.019531 171.746094 4.496094 171.347656 4.050781 170.84375 C 3.609375 170.34375 3.269531 169.753906 3.03125 169.085938 C 2.792969 168.417969 2.671875 167.703125 2.671875 166.933594 C 2.671875 166.164063 2.777344 165.449219 2.984375 164.78125 C 3.195313 164.113281 3.515625 163.527344 3.933594 163.023438 C 4.351563 162.515625 4.875 162.121094 5.5 161.835938 C 6.125 161.550781 6.859375 161.40625 7.695313 161.402344 C 8.4375 161.394531 9.121094 161.539063 9.734375 161.832031 C 10.355469 162.121094 10.921875 162.582031 11.449219 163.214844 Z M 16.1875 174.375 L 18.667969 174.375 L 18.667969 167.125 C 18.660156 165.980469 18.824219 164.984375 19.148438 164.128906 C 19.472656 163.273438 19.976563 162.605469 20.65625 162.128906 C 21.339844 161.648438 22.210938 161.40625 23.277344 161.402344 C 24.050781 161.40625 24.6875 161.570313 25.191406 161.894531 C 25.695313 162.222656 26.070313 162.6875 26.316406 163.289063 C 26.558594 163.890625 26.679688 164.605469 26.679688 165.441406 L 26.679688 174.375 L 29.160156 174.375 L 29.160156 165.183594 C 29.164063 163.976563 28.964844 162.921875 28.5625 162.011719 C 28.160156 161.105469 27.542969 160.394531 26.707031 159.886719 C 25.871094 159.375 24.804688 159.121094 23.5 159.109375 C 22.722656 159.121094 22.015625 159.242188 21.378906 159.480469 C 20.746094 159.726563 20.199219 160.027344 19.75 160.398438 C 19.296875 160.769531 18.957031 161.15625 18.730469 161.558594 L 18.667969 161.558594 L 18.667969 150.335938 L 16.1875 150.335938 Z M 34.089844 174.375 L 36.570313 174.375 L 36.570313 150.335938 L 34.089844 150.335938 Z M 60.390625 174.375 L 62.871094 174.375 L 62.871094 167.125 C 62.871094 165.984375 63.019531 165.003906 63.324219 164.179688 C 63.632813 163.351563 64.109375 162.714844 64.757813 162.269531 C 65.398438 161.824219 66.21875 161.597656 67.226563 161.589844 C 67.449219 161.589844 67.675781 161.609375 67.90625 161.640625 C 68.132813 161.671875 68.355469 161.71875 68.5625 161.78125 L 68.722656 159.269531 C 68.546875 159.207031 68.371094 159.164063 68.203125 159.144531 C 68.027344 159.121094 67.863281 159.109375 67.703125 159.109375 C 66.882813 159.117188 66.140625 159.253906 65.476563 159.519531 C 64.816406 159.785156 64.246094 160.128906 63.78125 160.558594 C 63.316406 160.980469 62.96875 161.441406 62.742188 161.941406 L 62.679688 161.941406 C 62.675781 161.527344 62.664063 161.113281 62.648438 160.707031 C 62.625 160.292969 62.617188 159.890625 62.617188 159.492188 L 60.261719 159.492188 C 60.265625 159.984375 60.289063 160.527344 60.324219 161.113281 C 60.363281 161.703125 60.382813 162.339844 60.390625 163.023438 Z M 70.152344 166.933594 C 70.15625 168.101563 70.359375 169.160156 70.75 170.113281 C 71.144531 171.066406 71.695313 171.894531 72.410156 172.585938 C 73.125 173.277344 73.960938 173.8125 74.925781 174.191406 C 75.890625 174.5625 76.953125 174.75 78.101563 174.757813 C 79.253906 174.753906 80.3125 174.5625 81.277344 174.191406 C 82.242188 173.8125 83.085938 173.277344 83.792969 172.585938 C 84.511719 171.894531 85.0625 171.066406 85.453125 170.113281 C 85.84375 169.160156 86.046875 168.101563 86.050781 166.933594 C 86.046875 165.769531 85.84375 164.707031 85.453125 163.753906 C 85.0625 162.792969 84.511719 161.972656 83.792969 161.277344 C 83.085938 160.589844 82.242188 160.054688 81.277344 159.679688 C 80.3125 159.308594 79.253906 159.117188 78.101563 159.109375 C 76.953125 159.117188 75.890625 159.308594 74.925781 159.679688 C 73.960938 160.054688 73.125 160.589844 72.410156 161.277344 C 71.695313 161.972656 71.144531 162.792969 70.75 163.753906 C 70.359375 164.707031 70.15625 165.769531 70.152344 166.933594 Z M 72.824219 166.933594 C 72.824219 166.148438 72.949219 165.421875 73.195313 164.757813 C 73.445313 164.082031 73.796875 163.5 74.257813 162.996094 C 74.722656 162.496094 75.273438 162.105469 75.925781 161.824219 C 76.570313 161.550781 77.296875 161.40625 78.101563 161.402344 C 78.90625 161.40625 79.632813 161.550781 80.28125 161.824219 C 80.933594 162.105469 81.484375 162.496094 81.945313 162.996094 C 82.40625 163.5 82.761719 164.082031 83.011719 164.757813 C 83.253906 165.421875 83.382813 166.148438 83.382813 166.933594 C 83.382813 167.71875 83.253906 168.445313 83.011719 169.113281 C 82.761719 169.78125 82.40625 170.367188 81.945313 170.871094 C 81.484375 171.371094 80.933594 171.761719 80.28125 172.042969 C 79.632813 172.320313 78.90625 172.460938 78.101563 172.46875 C 77.296875 172.460938 76.570313 172.320313 75.925781 172.042969 C 75.273438 171.761719 74.722656 171.371094 74.257813 170.871094 C 73.796875 170.367188 73.445313 169.78125 73.195313 169.113281 C 72.949219 168.445313 72.824219 167.71875 72.824219 166.933594 Z M 89.773438 181.625 L 92.253906 181.625 L 92.253906 171.734375 L 92.316406 171.734375 C 92.628906 172.304688 93.0625 172.816406 93.617188 173.269531 C 94.171875 173.722656 94.824219 174.085938 95.578125 174.347656 C 96.324219 174.613281 97.144531 174.75 98.042969 174.757813 C 99.089844 174.753906 100.058594 174.550781 100.960938 174.15625 C 101.863281 173.769531 102.648438 173.21875 103.324219 172.515625 C 104 171.808594 104.527344 170.984375 104.90625 170.035156 C 105.285156 169.085938 105.476563 168.050781 105.484375 166.933594 C 105.476563 165.800781 105.292969 164.757813 104.914063 163.808594 C 104.542969 162.859375 104.015625 162.03125 103.324219 161.328125 C 102.636719 160.628906 101.808594 160.085938 100.855469 159.699219 C 99.894531 159.3125 98.832031 159.117188 97.660156 159.109375 C 96.578125 159.117188 95.585938 159.34375 94.691406 159.785156 C 93.796875 160.230469 93 160.855469 92.316406 161.65625 L 92.253906 161.65625 L 92.253906 159.492188 L 89.773438 159.492188 Z M 92.253906 166.933594 C 92.253906 166.148438 92.378906 165.421875 92.625 164.757813 C 92.875 164.082031 93.230469 163.5 93.691406 162.996094 C 94.152344 162.496094 94.703125 162.105469 95.355469 161.824219 C 96 161.550781 96.726563 161.40625 97.53125 161.402344 C 98.339844 161.40625 99.0625 161.550781 99.710938 161.824219 C 100.363281 162.105469 100.914063 162.496094 101.375 162.996094 C 101.835938 163.5 102.191406 164.082031 102.441406 164.757813 C 102.683594 165.421875 102.8125 166.148438 102.8125 166.933594 C 102.8125 167.71875 102.683594 168.445313 102.441406 169.113281 C 102.191406 169.78125 101.835938 170.367188 101.375 170.871094 C 100.914063 171.371094 100.363281 171.761719 99.710938 172.042969 C 99.0625 172.320313 98.339844 172.460938 97.53125 172.46875 C 96.726563 172.460938 96 172.320313 95.355469 172.042969 C 94.703125 171.761719 94.152344 171.371094 93.691406 170.871094 C 93.230469 170.367188 92.875 169.785156 92.625 169.113281 C 92.378906 168.445313 92.253906 167.71875 92.253906 166.933594 Z M 109.332031 174.375 L 111.8125 174.375 L 111.8125 167.125 C 111.804688 165.980469 111.96875 164.984375 112.292969 164.128906 C 112.617188 163.273438 113.121094 162.605469 113.796875 162.128906 C 114.480469 161.648438 115.355469 161.40625 116.421875 161.402344 C 117.195313 161.40625 117.832031 161.570313 118.335938 161.894531 C 118.839844 162.222656 119.214844 162.6875 119.457031 163.289063 C 119.703125 163.890625 119.824219 164.605469 119.824219 165.441406 L 119.824219 174.375 L 122.304688 174.375 L 122.304688 165.183594 C 122.308594 163.976563 122.109375 162.921875 121.707031 162.011719 C 121.304688 161.105469 120.6875 160.394531 119.851563 159.886719 C 119.011719 159.375 117.949219 159.121094 116.644531 159.109375 C 115.867188 159.121094 115.160156 159.242188 114.523438 159.480469 C 113.886719 159.726563 113.34375 160.027344 112.890625 160.398438 C 112.441406 160.769531 112.101563 161.15625 111.875 161.558594 L 111.8125 161.558594 L 111.8125 150.335938 L 109.332031 150.335938 Z M 139.667969 159.492188 L 136.964844 159.492188 L 132.542969 171.164063 L 132.480469 171.164063 L 127.871094 159.492188 L 124.976563 159.492188 L 131.144531 174.472656 L 130.128906 177.269531 C 129.953125 177.761719 129.757813 178.1875 129.527344 178.558594 C 129.304688 178.921875 129.027344 179.203125 128.679688 179.410156 C 128.335938 179.613281 127.898438 179.71875 127.359375 179.71875 C 127.015625 179.71875 126.699219 179.703125 126.417969 179.664063 C 126.132813 179.621094 125.867188 179.558594 125.613281 179.464844 L 125.292969 181.625 C 125.632813 181.78125 126.003906 181.886719 126.398438 181.933594 C 126.789063 181.988281 127.164063 182.011719 127.519531 182.007813 C 128.261719 182.007813 128.894531 181.902344 129.417969 181.699219 C 129.941406 181.5 130.386719 181.207031 130.753906 180.835938 C 131.117188 180.460938 131.4375 180.015625 131.710938 179.5 C 131.984375 178.980469 132.242188 178.410156 132.480469 177.777344 Z M 142.5625 174.375 L 145.042969 174.375 L 145.042969 150.335938 L 142.5625 150.335938 Z M 150.195313 174.375 L 152.675781 174.375 L 152.675781 150.335938 L 150.195313 150.335938 Z M 150.195313 174.375 "/>
</g>
<path style=" stroke:none;fill-rule:evenodd;fill:rgb(23.143005%,66.209412%,15.696716%);fill-opacity:1;" d="M 40.640625 166.933594 C 40.644531 168.101563 40.847656 169.160156 41.238281 170.113281 C 41.632813 171.066406 42.183594 171.894531 42.898438 172.585938 C 43.613281 173.277344 44.453125 173.8125 45.417969 174.191406 C 46.382813 174.5625 47.441406 174.75 48.589844 174.757813 C 49.742188 174.753906 50.800781 174.5625 51.765625 174.191406 C 52.730469 173.8125 53.574219 173.277344 54.285156 172.585938 C 55 171.894531 55.550781 171.066406 55.941406 170.113281 C 56.335938 169.160156 56.535156 168.101563 56.542969 166.933594 C 56.535156 165.769531 56.335938 164.707031 55.941406 163.753906 C 55.550781 162.792969 55 161.972656 54.285156 161.277344 C 53.574219 160.589844 52.730469 160.054688 51.765625 159.679688 C 50.800781 159.308594 49.742188 159.117188 48.589844 159.109375 C 47.441406 159.117188 46.382813 159.308594 45.417969 159.679688 C 44.453125 160.054688 43.613281 160.589844 42.898438 161.277344 C 42.183594 161.972656 41.632813 162.792969 41.238281 163.753906 C 40.847656 164.707031 40.644531 165.769531 40.640625 166.933594 Z M 43.3125 166.933594 C 43.3125 166.148438 43.441406 165.421875 43.683594 164.757813 C 43.933594 164.082031 44.289063 163.5 44.75 162.996094 C 45.210938 162.496094 45.761719 162.105469 46.414063 161.824219 C 47.058594 161.550781 47.785156 161.40625 48.589844 161.402344 C 49.398438 161.40625 50.121094 161.550781 50.769531 161.824219 C 51.421875 162.105469 51.972656 162.496094 52.433594 162.996094 C 52.894531 163.5 53.25 164.082031 53.5 164.757813 C 53.742188 165.421875 53.871094 166.148438 53.871094 166.933594 C 53.871094 167.71875 53.742188 168.445313 53.5 169.113281 C 53.25 169.78125 52.894531 170.367188 52.433594 170.871094 C 51.972656 171.371094 51.421875 171.761719 50.769531 172.042969 C 50.121094 172.320313 49.398438 172.460938 48.589844 172.46875 C 47.785156 172.460938 47.058594 172.320313 46.414063 172.042969 C 45.761719 171.761719 45.210938 171.371094 44.75 170.871094 C 44.289063 170.367188 43.933594 169.78125 43.683594 169.113281 C 43.441406 168.445313 43.3125 167.71875 43.3125 166.933594 Z M 43.3125 166.933594 "/>
</g>
</svg>
