<?xml version="1.0" encoding="iso-8859-1"?>
<!-- Uploaded to: SVG Repo, www.svgrepo.com, Generator: SVG Repo Mixer Tools -->
<svg height="800px" width="800px" version="1.1" id="Layer_1" xmlns="http://www.w3.org/2000/svg" xmlns:xlink="http://www.w3.org/1999/xlink" 
	 viewBox="0 0 512.001 512.001" xml:space="preserve">
<path style="fill:#CEE8FA;" d="M26.924,162.962L156.16,292.198c17.575,17.575,46.068,17.575,63.643,0l72.395-72.395
	c17.575-17.575,17.575-46.068,0-63.643L162.962,26.923c-17.575-17.575-46.068-17.575-63.643,0L26.924,99.319
	C9.349,116.893,9.349,145.387,26.924,162.962z M225.392,208.872l-16.519,16.519c-11.538,11.538-30.245,11.538-41.784,0l-73.36-73.36
	c-11.538-11.538-11.538-30.245,0-41.784l16.519-16.519c11.538-11.538,30.245-11.538,41.784,0l73.36,73.36
	C236.929,178.627,236.929,197.334,225.392,208.872z"/>
<path style="fill:#2D527C;" d="M494.794,339.322L365.558,210.085c-11.095-11.095-25.849-17.206-41.539-17.206
	c-1.733,0-3.452,0.087-5.159,0.235c1.453-16.705-4.19-33.916-16.945-46.673L172.679,17.205C161.584,6.11,146.832,0,131.141,0
	s-30.444,6.11-41.539,17.206L17.207,89.602c-22.904,22.905-22.904,60.172,0,83.077l129.236,129.236
	c11.095,11.095,25.849,17.206,41.539,17.206s30.444-6.11,41.538-17.206L256,275.434l19.471,19.471
	c-15.439,16.967-14.968,43.334,1.421,59.723l73.36,73.36c8.175,8.175,19.046,12.68,30.609,12.68s22.434-4.503,30.609-12.68
	l16.519-16.519c16.878-16.878,16.878-44.341,0-61.219c-5.366-5.365-14.068-5.365-19.435,0c-5.366,5.366-5.366,14.068,0,19.435
	c6.162,6.161,6.162,16.188,0,22.35l-16.519,16.519c-2.985,2.986-6.953,4.63-11.175,4.63c-4.222,0-8.189-1.644-11.174-4.63
	l-73.36-73.36c-6.162-6.161-6.162-16.187,0-22.349l16.519-16.519c6.162-6.162,16.187-6.162,22.35,0
	c5.366,5.365,14.068,5.365,19.434,0c5.366-5.368,5.366-14.068,0-19.435c-16.389-16.389-42.755-16.86-59.722-1.42L275.437,256
	l26.481-26.481c5.904-5.905,13.754-9.156,22.104-9.156s16.2,3.251,22.104,9.156l129.236,129.236
	c12.188,12.188,12.188,32.02,0,44.208l-72.397,72.397c-5.904,5.905-13.754,9.156-22.104,9.156s-16.2-3.251-22.104-9.156
	L229.521,346.124c-5.365-5.365-14.068-5.365-19.434,0c-5.366,5.366-5.366,14.068,0,19.435l129.236,129.236
	c11.095,11.095,25.847,17.206,41.539,17.206c15.692,0,30.444-6.11,41.539-17.206l72.397-72.397
	C517.698,399.493,517.698,362.227,494.794,339.322z M256,236.565l-19.471-19.471c15.439-16.967,14.968-43.334-1.421-59.722
	l-73.36-73.36c-8.176-8.175-19.046-12.68-30.609-12.68s-22.434,4.503-30.609,12.68l-16.518,16.519
	c-16.878,16.878-16.878,44.341,0,61.219l73.36,73.36c8.439,8.439,19.523,12.658,30.607,12.658c10.442,0,20.884-3.749,29.115-11.237
	l19.47,19.471l-26.481,26.481c-5.904,5.905-13.754,9.156-22.104,9.156s-16.2-3.251-22.104-9.156L36.639,153.246l0,0
	c-12.188-12.188-12.188-32.02,0-44.208l72.397-72.397c5.905-5.906,13.756-9.158,22.105-9.158s16.2,3.251,22.104,9.156
	l129.236,129.236c12.189,12.188,12.189,32.021,0,44.209L256,236.565z M199.155,215.674c-6.162,6.162-16.189,6.159-22.349,0
	l-73.36-73.36c-6.162-6.161-6.162-16.188,0-22.35l16.519-16.519c2.985-2.986,6.953-4.63,11.175-4.63
	c4.222,0,8.189,1.644,11.174,4.63l73.36,73.36c6.162,6.161,6.162,16.187,0,22.349L199.155,215.674z"/>
</svg>