<?xml version="1.0" encoding="iso-8859-1"?>
<!-- Uploaded to: SVG Repo, www.svgrepo.com, Generator: SVG Repo Mixer Tools -->
<svg height="800px" width="800px" version="1.1" id="Layer_1" xmlns="http://www.w3.org/2000/svg" xmlns:xlink="http://www.w3.org/1999/xlink" 
	 viewBox="0 0 512 512" xml:space="preserve">
<circle style="fill:#FFEDB5;" cx="256" cy="256" r="256"/>
<path style="fill:#FEE187;" d="M291.859,230.372L88.555,300.934l207.877,207.877c106.122-16.839,190.516-98.883,210.861-203.795
	L357.997,155.719l-7.428,8.956l-90.593-87.038l-6.13,50.652l69.365,69.365l-29.051,35.019L291.859,230.372z"/>
<polygon style="fill:#273B7A;" points="228.992,433.274 283.008,433.274 310.015,325.244 201.985,325.244 "/>
<polygon style="fill:#121149;" points="310.015,325.244 255.426,325.244 255.426,433.274 283.008,433.274 "/>
<path style="fill:#273B7A;" d="M93.958,304.271c-2.214,0-4.346-1.222-5.403-3.337c-1.489-2.981-0.281-6.604,2.698-8.095
	l54.015-27.008c2.986-1.484,6.608-0.281,8.095,2.698c1.489,2.981,0.281,6.604-2.698,8.095l-54.015,27.008
	C95.784,304.066,94.863,304.271,93.958,304.271z"/>
<path style="fill:#121149;" d="M418.042,304.271c-0.905,0-1.827-0.205-2.694-0.638l-54.015-27.008
	c-2.981-1.491-4.189-5.115-2.698-8.095c1.489-2.981,5.113-4.184,8.095-2.698l54.015,27.008c2.981,1.491,4.189,5.115,2.698,8.095
	C422.388,303.049,420.255,304.271,418.042,304.271z"/>
<path style="fill:#273B7A;" d="M256,142.222c-3.332,0-6.034-2.701-6.034-6.034V82.173c0-3.332,2.701-6.034,6.034-6.034
	s6.034,2.701,6.034,6.034v54.015C262.034,139.521,259.332,142.222,256,142.222z"/>
<path style="fill:#121149;" d="M256,76.14c-0.197,0-0.383,0.04-0.574,0.059v65.967c0.191,0.019,0.378,0.059,0.574,0.059
	c3.332,0,6.034-2.701,6.034-6.034V82.173C262.034,78.841,259.332,76.14,256,76.14z"/>
<circle style="fill:#38C6D9;" cx="256" cy="244.226" r="135.034"/>
<path style="fill:#02B2B2;" d="M256,109.18c-0.193,0-0.381,0.014-0.574,0.016v270.05c0.193,0,0.381,0.014,0.574,0.014
	c74.58,0,135.039-60.459,135.039-135.039C391.039,169.639,330.58,109.18,256,109.18z"/>
<path style="fill:#386895;" d="M250.533,238.737l1.033,1.277l-130.001,16.78c3.47,37.562,22.321,70.647,50.202,92.936
	l83.659-103.521v-6.842L250.533,238.737z"/>
<path style="fill:#273B7A;" d="M260.434,240.014l1.033-1.277L256,239.442l-0.574-0.074v6.842L256,245.5l84.233,104.229
	c27.879-22.287,46.732-55.372,50.202-92.936L260.434,240.014z"/>
<path style="fill:#386895;" d="M255.995,244.221l50.255-125.34c-15.538-6.235-32.484-9.7-50.25-9.7
	c-17.768,0-34.719,3.465-50.259,9.704L255.995,244.221z"/>
<g>
	<path style="fill:#273B7A;" d="M306.25,118.881c-15.538-6.235-32.484-9.7-50.25-9.7c-0.193,0-0.381,0.014-0.574,0.014V242.8
		l0.569,1.419L306.25,118.881z"/>
	<circle style="fill:#273B7A;" cx="256" cy="244.226" r="27.008"/>
	<path style="fill:#273B7A;" d="M228.992,244.221c0,14.722,11.786,26.671,26.434,26.979v-53.958
		C240.778,217.55,228.992,229.497,228.992,244.221z"/>
	<path style="fill:#273B7A;" d="M256,217.212c-0.193,0-0.381,0.024-0.574,0.029V271.2c0.193,0.003,0.381,0.029,0.574,0.029
		c14.915,0,27.008-12.091,27.008-27.008C283.008,229.304,270.915,217.212,256,217.212z"/>
</g>
</svg>