<?xml version="1.0" encoding="utf-8"?>
<!-- Uploaded to: SVG Repo, www.svgrepo.com, Generator: SVG Repo Mixer Tools -->
<svg xmlns="http://www.w3.org/2000/svg" xmlns:xlink="http://www.w3.org/1999/xlink" version="1.1" id="lowtemperature"  viewBox="0 0 182.6276 220" enable-background="new 0 0 182.6276 220" xml:space="preserve" width="512" height="512">
<g>
	<path fill="#FFFFFF" d="M103.6147,24c2.209,0,4,1.791,4,4s-1.791,4-4,4h-8v20h8c2.209,0,4,1.791,4,4s-1.791,4-4,4h-8v20h8   c2.209,0,4,1.791,4,4s-1.791,4-4,4h-8v20h8h12V18.0078c0-5.5176-4.4863-10.0078-10-10.0078s-10,4.4902-10,10.0078V24H103.6147z"/>
	<path fill="#5CB0FF" d="M118.4057,130.5391c-1.6621-0.5273-2.791-2.0684-2.791-3.8125v-10.707h-20v10.707   c0,1.7441-1.1289,3.2852-2.791,3.8125c-17.4707,5.543-29.209,21.5156-29.209,39.7461c0,23.002,18.8418,41.7148,42,41.7148   s42-18.7129,42-41.7148C147.6147,152.0547,135.8764,136.082,118.4057,130.5391z"/>
	<path fill="#1C71DA" d="M123.6147,123.8887V116v-3.9805V18.0078c0-9.9297-8.0742-18.0078-18-18.0078s-18,8.0781-18,18.0078v94.0117   V116v7.8887c-19.2578,7.3594-32,25.6504-32,46.3965c0,27.4121,22.4297,49.7148,50,49.7148s50-22.3027,50-49.7148   C155.6147,149.5391,142.8725,131.248,123.6147,123.8887z M105.6147,8c5.5137,0,10,4.4902,10,10.0078V108h-12h-8V88h8   c2.209,0,4-1.791,4-4s-1.791-4-4-4h-8V60h8c2.209,0,4-1.791,4-4s-1.791-4-4-4h-8V32h8c2.209,0,4-1.791,4-4s-1.791-4-4-4h-8v-5.9922   C95.6147,12.4902,100.1011,8,105.6147,8z M105.6147,212c-23.1582,0-42-18.7129-42-41.7148   c0-18.2305,11.7383-34.2031,29.209-39.7461c1.6621-0.5273,2.791-2.0684,2.791-3.8125v-10.707h20v10.707   c0,1.7441,1.1289,3.2852,2.791,3.8125c17.4707,5.543,29.209,21.5156,29.209,39.7461C147.6147,193.2871,128.7729,212,105.6147,212z"/>
</g>
<path fill="#FF5D5D" d="M4.0001,26.8322c-1.0239,0-2.0474-0.3906-2.8286-1.1714c-1.562-1.5625-1.562-4.0947,0-5.6572L15.3136,5.8615  c1.5625-1.5615,4.0947-1.5615,5.6572,0c1.562,1.5625,1.562,4.0947,0,5.6572L6.8287,25.6608  C6.0475,26.4415,5.024,26.8322,4.0001,26.8322z"/>
<path fill="#FF5D5D" d="M18.1422,26.8307c-1.0239,0-2.0474-0.3906-2.8286-1.1714L1.1715,11.5167  c-1.562-1.5625-1.562-4.0952,0-5.6572c1.563-1.5615,4.0952-1.5605,5.6572,0l14.1421,14.1426c1.562,1.5625,1.562,4.0952,0,5.6572  C20.1896,26.4401,19.1656,26.8307,18.1422,26.8307z"/>
<path fill="#00D40B" d="M30.0001,158.8322c-7.7197,0-14-6.2803-14-14s6.2803-14,14-14s14,6.2803,14,14  S37.7198,158.8322,30.0001,158.8322z M30.0001,138.8322c-3.3086,0-6,2.6914-6,6s2.6914,6,6,6s6-2.6914,6-6  S33.3087,138.8322,30.0001,138.8322z"/>
<path fill="#FFC504" d="M167.3136,93.4576c-1.0239,0-2.0474-0.3906-2.8286-1.1714l-11.3135-11.3135  c-1.562-1.5625-1.562-4.0947,0-5.6572l11.3135-11.3135c1.5625-1.5615,4.0952-1.5615,5.6567,0l11.314,11.3135  c0.7505,0.7505,1.1719,1.7676,1.1719,2.8286s-0.4214,2.0781-1.1719,2.8286l-11.314,11.3135  C169.361,93.067,168.337,93.4576,167.3136,93.4576z M161.6569,78.1442l5.6567,5.6567l5.6572-5.6567l-5.6572-5.6567L161.6569,78.1442  z"/>
</svg>