<?xml version="1.0" encoding="utf-8"?>
<!-- Uploaded to: SVG Repo, www.svgrepo.com, Generator: SVG Repo Mixer Tools -->
<svg width="800px" height="800px" viewBox="0 0 1024 1024" class="icon"  version="1.1" xmlns="http://www.w3.org/2000/svg"><path d="M510.6 479.3m-457.2 0a457.2 457.2 0 1 0 914.4 0 457.2 457.2 0 1 0-914.4 0Z" fill="#59EFE4" /><path d="M420.1 272h-285c-8.9 0-16.2-7.2-16.2-16.2 0-8.9 7.2-16.2 16.2-16.2h268.7c-1-19.5-13.3-36.7-31.8-44.4-8.3-3.4-12.2-12.9-8.8-21.1 3.4-8.3 12.9-12.1 21.1-8.8 31.5 13.1 51.9 43.3 51.9 76.9v13.6c0.1 8.9-7.1 16.2-16.1 16.2zM853 374.5H568c-8.9 0-16.2-7.2-16.2-16.2s7.2-16.2 16.2-16.2h268.7c-1-19.5-13.3-36.7-31.8-44.4-8.3-3.4-12.2-12.9-8.8-21.1 3.4-8.3 12.9-12.1 21.1-8.8 31.5 13.1 51.9 43.3 51.9 76.9v13.6c0.1 8.9-7.1 16.2-16.1 16.2zM295.8 475.6H71.6c-8.9 0-16.2-7.2-16.2-16.2s7.2-16.2 16.2-16.2h224.2c8.9 0 16.2 7.2 16.2 16.2s-7.2 16.2-16.2 16.2zM422.6 858.6H261.3c-6.4 0-11.6-7.2-11.6-16.2s5.2-16.2 11.6-16.2h161.3c6.4 0 11.6 7.2 11.6 16.2s-5.2 16.2-11.6 16.2zM945.8 536.3H728.4c-8.7 0-15.7-7.2-15.7-16.2s7-16.2 15.7-16.2h217.4c8.7 0 15.7 7.2 15.7 16.2s-7 16.2-15.7 16.2zM871.7 746.7H654.3c-8.7 0-15.7-7.2-15.7-16.2s7-16.2 15.7-16.2h217.4c8.7 0 15.7 7.2 15.7 16.2s-7.1 16.2-15.7 16.2z" fill="#FFFFFF" /><path d="M583.4 1002.1H441.2l13.4-526.5h105.3z" fill="#E06838" /><path d="M583.4 1012.1H441.2c-2.7 0-5.3-1.1-7.2-3-1.9-1.9-2.9-4.5-2.8-7.2l13.4-526.5c0.1-5.4 4.6-9.7 10-9.7h105.3c5.3 0 9.8 4.2 10 9.6l23.5 526.5c0.1 2.7-0.9 5.4-2.8 7.4s-4.5 2.9-7.2 2.9z m-131.9-20h121.4l-22.6-506.5h-86l-12.8 506.5z" fill="" /><path d="M593.3 257.9c0 79-37 207.7-82.7 207.7s-82.7-128.7-82.7-207.7 82.7-143 82.7-143 82.7 64.1 82.7 143z" fill="#B6B7B7" /><path d="M510.6 475.6c-17.8 0-44.1-14-67.9-80.9-15.1-42.3-24.8-96-24.8-136.8 0-82.9 83-148.1 86.6-150.9 3.6-2.8 8.6-2.8 12.2 0 3.5 2.7 86.5 68 86.5 150.9 0 40.8-9.7 94.5-24.8 136.8-23.7 66.9-49.9 80.9-67.8 80.9z m0-347.6c-18.5 16.3-72.7 69.1-72.7 129.9 0 38.7 9.3 89.7 23.6 130.1 14.8 41.7 33.6 67.6 49 67.6 15.4 0 34.2-25.9 49-67.6 14.4-40.4 23.6-91.4 23.6-130.1 0.2-61-53.9-113.6-72.5-129.9z" fill="" /><path d="M257.3 553.5c68.4-39.5 198.4-71.8 221.2-32.3 22.8 39.5-70.2 136-138.5 175.4s-165.1-0.1-165.1-0.1 14-103.6 82.4-143z" fill="#B6B7B7" /><path d="M266.7 724.2c-49.7 0-93-17.3-95.7-18.5-4.2-1.7-6.7-6.1-6.1-10.6 0.6-4.4 15.6-108.9 87.4-150.4 35.3-20.4 86.7-38.8 130.9-46.9 69.8-12.8 95.1 2.9 104 18.3 8.9 15.4 9.9 45.2-36.1 99.2-29.1 34.2-70.8 69.5-106.1 89.9-24.6 14.3-52.3 19-78.3 19zM186.1 690c23.3 7.9 96.1 28.4 148.8-2 33.5-19.3 73.1-52.9 100.9-85.5 28.7-33.7 41.7-62.9 34-76.3-7.7-13.3-39.5-16.7-83.1-8.7-42.1 7.7-91 25.2-124.5 44.6-52.7 30.5-71.3 103.7-76.1 127.9z m71.2-136.5z" fill="" /><path d="M681.2 696.6c-68.4-39.5-161.4-135.9-138.5-175.4 22.8-39.5 152.8-7.2 221.2 32.3s82.5 143.1 82.5 143.1-96.8 39.5-165.2 0z" fill="#B6B7B7" /><path d="M754.5 724.2c-25.9 0-53.6-4.7-78.3-18.9-35.3-20.4-76.9-55.7-106.1-89.9-46-54-45-83.8-36.1-99.2 8.9-15.4 34.2-31.2 104-18.3 44.2 8.1 95.6 26.5 130.9 46.9 71.8 41.5 86.8 146 87.4 150.4 0.6 4.5-1.9 8.9-6.1 10.6-2.7 1.1-46 18.4-95.7 18.4z m-162-211c-21.4 0-36.2 4.4-41.1 13-7.7 13.3 5.3 42.6 34 76.3 27.8 32.6 67.4 66.2 100.9 85.5 20.9 12.1 45 16.1 67.9 16.1 34.8 0 66.8-9.3 80.9-14.1-4.8-24.2-23.5-97.5-76.2-127.9-33.5-19.3-82.4-36.8-124.5-44.6-15.7-2.9-29.9-4.3-41.9-4.3z" fill="" /><path d="M510.6 502.7m-77.2 0a77.2 77.2 0 1 0 154.4 0 77.2 77.2 0 1 0-154.4 0Z" fill="#B6B7B7" /><path d="M510.6 589.9c-48.1 0-87.2-39.1-87.2-87.2s39.1-87.2 87.2-87.2 87.2 39.1 87.2 87.2-39.1 87.2-87.2 87.2z m0-154.4c-37.1 0-67.2 30.2-67.2 67.2 0 37.1 30.2 67.2 67.2 67.2s67.2-30.2 67.2-67.2c0-37.1-30.1-67.2-67.2-67.2z" fill="" /><path d="M578.5 954.8h-134c-5.5 0-10-4.5-10-10s4.5-10 10-10h134c5.5 0 10 4.5 10 10s-4.4 10-10 10z" fill="" /></svg>